<svg width="93" height="71" viewBox="0 0 93 71" fill="none" xmlns="http://www.w3.org/2000/svg">
<path d="M86.1898 69.9162H5.75738C2.63857 69.9162 0.012207 67.3723 0.012207 64.1719V6.07243C0.012207 2.95409 2.5565 0.328125 5.75738 0.328125H86.1898C89.3086 0.328125 91.935 2.87203 91.935 6.07243V64.1719C91.935 67.3723 89.3907 69.9162 86.1898 69.9162Z" fill="#E3E3E3"/>
<path opacity="0.1" d="M11.5024 69.9166L45.8914 42.2619L46.1376 40.7848L10.6817 15.2637L10.5996 68.6857L11.5024 69.9166Z" fill="#231F20"/>
<path d="M5.75738 69.9194C2.5565 69.9194 0.012207 67.3755 0.012207 64.1751V5.99358C0.012207 2.79318 2.5565 2.21875 5.75738 2.21875C8.95826 2.21875 11.5026 2.87524 11.5026 5.99358V69.9194H5.75738Z" fill="#D54B3D"/>
<path d="M5.75738 3.03936C9.86108 3.03936 10.6818 4.27029 10.6818 5.99358V69.0988H5.75738C3.04894 69.0988 0.832946 66.8832 0.832946 64.1751V5.99358C0.832946 4.18822 1.65369 3.03936 5.75738 3.03936ZM5.75738 2.21875C2.5565 2.21875 0.012207 2.87524 0.012207 5.99358V64.1751C0.012207 67.3755 2.5565 69.9194 5.75738 69.9194H11.5026V5.99358C11.5026 2.79318 8.95826 2.21875 5.75738 2.21875Z" fill="#D72B27"/>
<path d="M86.1895 69.9194H80.4443V5.82945C80.4443 2.62906 82.9886 2.21875 86.1895 2.21875C89.3904 2.21875 91.9347 2.62906 91.9347 5.82945V64.2572C91.9347 67.3755 89.3904 69.9194 86.1895 69.9194Z" fill="#D54B3D"/>
<path d="M86.1895 3.03936C89.8828 3.03936 91.114 3.77792 91.114 5.82945V64.2572C91.114 66.9652 88.898 69.1809 86.1895 69.1809H81.2651V5.82945C81.2651 3.69586 82.4962 3.03936 86.1895 3.03936ZM86.1895 2.21875C82.9886 2.21875 80.4443 2.62906 80.4443 5.82945V70.0015H86.1895C89.3904 70.0015 91.9347 67.4576 91.9347 64.2572V5.82945C91.9347 2.62906 89.3904 2.21875 86.1895 2.21875Z" fill="#D72B27"/>
<path d="M61.5673 69.9164L0.492676 8.37682L3.70514 9.68335L46.2194 40.2923L91.9346 6.77539L91.9346 64.2542C91.9346 67.3725 89.3903 69.9164 86.1894 69.9164H61.5673Z" fill="url(#paint0_linear)"/>
<path d="M45.8922 42.2634L2.47507 10.7518C-0.0692213 8.86435 -0.807886 5.25365 1.07981 2.70974C2.96751 0.165837 6.66084 -0.408593 9.28721 1.47882L45.9742 28.1488L82.9075 1.15057C85.4518 -0.736839 89.0631 -0.162409 90.9508 2.46356C92.8385 5.00746 92.2639 8.61817 89.6376 10.5056L45.8922 42.2634Z" fill="#D54B3D"/>
<path d="M86.1897 0.820615C87.7491 0.820615 89.2264 1.55917 90.2113 2.87215C91.7707 5.08781 91.2782 8.12408 89.1443 9.76531L45.8913 41.2769L2.96668 10.0936C0.750688 8.45233 0.176171 5.33399 1.73558 3.2004C2.63839 1.96947 4.19779 1.14886 5.83927 1.14886C6.90623 1.14886 7.97319 1.47711 8.79393 2.1336L45.3989 28.7215L45.8913 29.0498L46.3838 28.7215L83.235 1.72329C84.1378 1.14886 85.1227 0.820615 86.1897 0.820615ZM86.1897 0C85.0406 0 83.8095 0.328246 82.8246 1.0668L45.8913 28.065L9.2043 1.39504C8.21942 0.656492 6.98831 0.328246 5.7572 0.328246C3.95157 0.328246 2.14595 1.14886 0.99691 2.70803C-0.808716 5.25193 -0.0700508 8.86264 2.47424 10.7501L45.8913 42.3437L89.5547 10.5039C92.099 8.61645 92.6735 5.08781 90.8679 2.46184C89.7188 0.820615 87.9953 0 86.1897 0Z" fill="#D72B27"/>
<defs>
<linearGradient id="paint0_linear" x1="0.496233" y1="38.3444" x2="91.9641" y2="38.3444" gradientUnits="userSpaceOnUse">
<stop stop-opacity="0.1"/>
<stop offset="1" stop-opacity="0.2"/>
</linearGradient>
</defs>
</svg>
